<svg width="22" height="22" viewBox="0 0 22 22" fill="none" xmlns="http://www.w3.org/2000/svg">
<path fill-rule="evenodd" clip-rule="evenodd" d="M11.1912 2C8.70591 2 6.69119 4.01472 6.69119 6.5C6.69119 8.98528 8.70591 11 11.1912 11C13.6765 11 15.6912 8.98528 15.6912 6.5C15.6912 4.01472 13.6765 2 11.1912 2ZM4.69119 6.5C4.69119 2.91015 7.60134 0 11.1912 0C14.781 0 17.6912 2.91015 17.6912 6.5C17.6912 10.0899 14.781 13 11.1912 13C7.60134 13 4.69119 10.0899 4.69119 6.5Z" fill="#8C30F5"/>
<path fill-rule="evenodd" clip-rule="evenodd" d="M11.1912 13C6.82623 13 3.28253 15.7424 2.4044 19.2615C2.35997 19.4395 2.40445 19.5945 2.53176 19.732C2.67113 19.8824 2.90843 20 3.19121 20H19.1912C19.474 20 19.7113 19.8824 19.8506 19.732C19.978 19.5945 20.0224 19.4395 19.978 19.2615C19.0999 15.7424 15.5562 13 11.1912 13ZM0.463902 18.7772C1.59088 14.2609 6.02271 11 11.1912 11C16.3597 11 20.7915 14.2609 21.9185 18.7772C22.386 20.6507 20.7583 22 19.1912 22H3.19121C1.62414 22 -0.00359139 20.6507 0.463902 18.7772Z" fill="#8C30F5"/>
</svg>
