<svg width="24" height="24" viewBox="0 0 24 24" fill="none" xmlns="http://www.w3.org/2000/svg">
<path opacity="0.1" fill-rule="evenodd" clip-rule="evenodd" d="M0 12C0 5.37258 5.37258 0 12 0C18.6274 0 24 5.37258 24 12C24 18.6274 18.6274 24 12 24C5.37258 24 0 18.6274 0 12Z" fill="white"/>
<path fill-rule="evenodd" clip-rule="evenodd" d="M12.0006 5.59998C10.2625 5.59998 10.0443 5.60758 9.36165 5.63864C8.68031 5.66984 8.21523 5.77771 7.8083 5.93598C7.38736 6.09945 7.03029 6.31812 6.67455 6.67399C6.31855 7.02972 6.09988 7.38679 5.93588 7.8076C5.77721 8.21467 5.66921 8.67987 5.63854 9.36095C5.60801 10.0436 5.60001 10.2619 5.60001 12C5.60001 13.7382 5.60774 13.9557 5.63867 14.6383C5.67001 15.3197 5.77787 15.7847 5.93601 16.1917C6.09961 16.6126 6.31828 16.9697 6.67415 17.3254C7.02975 17.6814 7.38682 17.9006 7.8075 18.0641C8.2147 18.2224 8.6799 18.3302 9.36111 18.3614C10.0438 18.3925 10.2618 18.4001 11.9998 18.4001C13.7381 18.4001 13.9556 18.3925 14.6382 18.3614C15.3196 18.3302 15.7852 18.2224 16.1924 18.0641C16.6132 17.9006 16.9697 17.6814 17.3253 17.3254C17.6813 16.9697 17.9 16.6126 18.064 16.1918C18.2213 15.7847 18.3293 15.3195 18.3613 14.6385C18.392 13.9558 18.4 13.7382 18.4 12C18.4 10.2619 18.392 10.0438 18.3613 9.36108C18.3293 8.67974 18.2213 8.21467 18.064 7.80773C17.9 7.38679 17.6813 7.02972 17.3253 6.67399C16.9693 6.31798 16.6133 6.09931 16.192 5.93598C15.784 5.77771 15.3186 5.66984 14.6373 5.63864C13.9546 5.60758 13.7373 5.59998 11.9986 5.59998H12.0006ZM11.4264 6.7533C11.5968 6.75304 11.787 6.7533 12.0006 6.7533C13.7094 6.7533 13.9119 6.75944 14.5867 6.7901C15.2107 6.81864 15.5494 6.9229 15.775 7.01051C16.0737 7.12651 16.2866 7.26517 16.5105 7.48918C16.7345 7.71318 16.8732 7.92652 16.9894 8.22518C17.077 8.45052 17.1814 8.78919 17.2098 9.4132C17.2405 10.0879 17.2472 10.2905 17.2472 11.9986C17.2472 13.7066 17.2405 13.9092 17.2098 14.5839C17.1813 15.2079 17.077 15.5466 16.9894 15.7719C16.8734 16.0706 16.7345 16.2833 16.5105 16.5071C16.2865 16.7311 16.0738 16.8698 15.775 16.9858C15.5497 17.0738 15.2107 17.1778 14.5867 17.2063C13.9121 17.237 13.7094 17.2437 12.0006 17.2437C10.2916 17.2437 10.0891 17.237 9.41442 17.2063C8.79041 17.1775 8.45174 17.0733 8.22601 16.9857C7.92734 16.8697 7.714 16.731 7.49 16.507C7.266 16.283 7.12733 16.0702 7.01106 15.7714C6.92346 15.5461 6.81906 15.2074 6.79066 14.5834C6.75999 13.9087 6.75386 13.706 6.75386 11.997C6.75386 10.2879 6.75999 10.0863 6.79066 9.4116C6.81919 8.78759 6.92346 8.44892 7.01106 8.22332C7.12706 7.92465 7.266 7.71131 7.49 7.48731C7.714 7.26331 7.92734 7.12464 8.22601 7.00837C8.45161 6.92037 8.79041 6.81637 9.41442 6.7877C10.0048 6.76104 10.2336 6.75304 11.4264 6.7517V6.7533ZM15.4169 7.81598C14.9929 7.81598 14.6489 8.15959 14.6489 8.58372C14.6489 9.00773 14.9929 9.35173 15.4169 9.35173C15.8409 9.35173 16.1849 9.00773 16.1849 8.58372C16.1849 8.15972 15.8409 7.81598 15.4169 7.81598ZM12.0006 8.71332C10.1855 8.71332 8.71392 10.1849 8.71392 12C8.71392 13.8151 10.1855 15.2861 12.0006 15.2861C13.8157 15.2861 15.2868 13.8151 15.2868 12C15.2868 10.1849 13.8157 8.71332 12.0006 8.71332ZM12.0006 9.86667C13.1787 9.86667 14.1339 10.8217 14.1339 12C14.1339 13.1782 13.1787 14.1334 12.0006 14.1334C10.8223 14.1334 9.86724 13.1782 9.86724 12C9.86724 10.8217 10.8223 9.86667 12.0006 9.86667Z" fill="white"/>
</svg>
